<svg width="306" height="219" viewBox="0 0 306 219" fill="none" xmlns="http://www.w3.org/2000/svg">
<g clip-path="url(#clip0_8_6)">
<path d="M247.293 139.349C247.566 139.374 247.84 139.315 248.079 139.179C248.317 139.043 248.508 138.837 248.625 138.589C248.743 138.342 248.781 138.063 248.736 137.793C248.69 137.523 248.562 137.273 248.369 137.077C248.342 136.942 248.322 136.844 248.295 136.709C248.308 136.68 248.322 136.652 248.335 136.623C248.641 135.985 249.129 135.451 249.738 135.089C250.346 134.727 251.048 134.552 251.756 134.588C252.463 134.623 253.144 134.867 253.713 135.289C254.282 135.71 254.714 136.29 254.955 136.956C255.916 139.614 257.173 142.291 257.384 145.064C257.477 146.29 257.356 147.523 257.028 148.707C259.829 143.278 261.431 137.31 261.723 131.207C261.795 129.676 261.781 128.141 261.682 126.611C261.599 125.357 261.461 124.109 261.269 122.868C260.216 116.131 257.581 109.74 253.579 104.219C251.574 103.001 249.991 101.197 249.043 99.0519C248.699 98.2805 248.469 97.4634 248.359 96.626C248.589 96.6673 248.824 96.6973 249.056 96.7233C249.128 96.7304 249.204 96.7378 249.276 96.745L249.303 96.7475C249.558 96.7708 249.813 96.72 250.04 96.6013C250.266 96.4827 250.453 96.3011 250.579 96.0785C250.704 95.8559 250.763 95.6017 250.747 95.3467C250.732 95.0916 250.643 94.8465 250.491 94.6408C250.397 94.5128 250.302 94.3849 250.207 94.2571C250.064 94.0598 249.917 93.8661 249.774 93.6688C249.757 93.65 249.741 93.6301 249.727 93.6095C249.562 93.3845 249.397 93.1633 249.232 92.9383C249.574 92.4575 250.023 92.0622 250.544 91.7834C252.345 90.8379 254.731 91.6619 255.924 93.3071C257.121 94.9525 257.257 97.189 256.723 99.1502C256.211 100.816 255.419 102.383 254.381 103.783C254.47 103.91 254.563 104.032 254.653 104.158C256.287 106.475 257.691 108.946 258.843 111.536C258.666 108.686 259.168 105.835 260.308 103.217C261.453 100.781 263.481 98.7791 265.28 96.711C267.441 94.2269 271.575 95.5474 271.782 98.8336C271.784 98.8654 271.786 98.8972 271.788 98.929C271.529 99.0597 271.275 99.1993 271.026 99.3479C270.712 99.5367 270.464 99.8157 270.312 100.148C270.16 100.481 270.112 100.852 270.174 101.212C270.237 101.572 270.406 101.905 270.661 102.167C270.916 102.43 271.244 102.609 271.603 102.681L271.64 102.689C271.507 103.594 271.306 104.488 271.039 105.363C270.267 107.805 268.999 110.061 267.314 111.99C265.63 113.919 263.565 115.479 261.249 116.573C261.097 116.642 260.949 116.711 260.798 116.777C261.905 120.453 262.531 124.257 262.657 128.094C262.725 130.357 262.609 132.623 262.311 134.867L262.327 134.788C262.93 132.305 264.372 130.105 266.409 128.562C269.434 126.305 273.59 125.616 276.821 123.839C277.165 123.64 277.559 123.543 277.956 123.561C278.353 123.578 278.736 123.709 279.062 123.937C279.387 124.166 279.64 124.482 279.791 124.85C279.942 125.217 279.985 125.62 279.914 126.011C279.909 126.039 279.903 126.067 279.897 126.095C279.42 126.264 278.954 126.462 278.501 126.689C278.242 126.82 277.988 126.959 277.739 127.108C277.426 127.297 277.177 127.576 277.025 127.908C276.873 128.241 276.825 128.612 276.888 128.972C276.95 129.332 277.12 129.665 277.375 129.928C277.63 130.19 277.958 130.369 278.316 130.441L278.353 130.449C278.379 130.454 278.402 130.459 278.428 130.464C277.539 132.337 276.334 134.044 274.865 135.509C273.053 137.281 270.898 138.663 268.533 139.573C266.167 140.482 263.641 140.898 261.109 140.796L261.105 140.796C260.279 143.75 259.148 146.611 257.731 149.331L247.118 148.837C247.085 148.717 247.057 148.594 247.028 148.474C248.007 148.582 248.996 148.569 249.973 148.436C249.23 147.433 248.488 146.423 247.746 145.42C247.729 145.401 247.713 145.381 247.699 145.361C247.322 144.847 246.942 144.338 246.566 143.825L246.565 143.824C246.615 142.307 246.859 140.803 247.292 139.349L247.293 139.349Z" fill="#F2F2F2"/>
<path d="M33.4539 47.5764C33.1828 47.6186 32.9053 47.5764 32.659 47.4556C32.4127 47.3347 32.2095 47.1411 32.077 46.9009C31.9444 46.6608 31.8888 46.3856 31.9178 46.1128C31.9468 45.84 32.059 45.5828 32.2391 45.3758C32.2582 45.2389 32.2718 45.1405 32.2909 45.0036C32.2757 44.9759 32.2605 44.9482 32.2452 44.9205C31.9002 44.3021 31.3802 43.7994 30.7504 43.4756C30.1207 43.1518 29.4093 43.0212 28.7056 43.1004C28.0019 43.1796 27.3373 43.465 26.7952 43.9207C26.2532 44.3764 25.8579 44.9821 25.659 45.6617C24.8637 48.3744 23.7744 51.1235 23.7351 53.9045C23.7182 55.1338 23.9148 56.3566 24.3159 57.5186C21.1842 52.2727 19.2172 46.4147 18.5481 40.3418C18.3818 38.8178 18.3008 37.2856 18.3055 35.7525C18.3106 34.4955 18.3708 33.2415 18.4863 31.9904C19.1205 25.2013 21.3561 18.6595 25.0095 12.9021C26.9351 11.5625 28.4038 9.6648 29.2177 7.46475C29.5132 6.67359 29.6925 5.84383 29.7503 5.00126C29.5227 5.05667 29.29 5.10112 29.0607 5.14137C28.9892 5.15296 28.9139 5.165 28.8424 5.17662L28.8154 5.18078C28.5628 5.21978 28.3044 5.18494 28.0712 5.08046C27.838 4.97599 27.6399 4.80633 27.5009 4.59191C27.3618 4.3775 27.2877 4.12746 27.2875 3.87191C27.2873 3.61636 27.3609 3.36619 27.4995 3.15151C27.5859 3.01796 27.6723 2.88446 27.7588 2.75102C27.8897 2.54525 28.0247 2.34287 28.1555 2.13713C28.1711 2.11725 28.1854 2.09649 28.1986 2.07496C28.3493 1.84023 28.5003 1.6093 28.651 1.37457C28.2795 0.915773 27.807 0.549 27.2704 0.302843C25.414 -0.529467 23.0833 0.440334 21.9943 2.1561C20.9016 3.87224 20.904 6.11287 21.5577 8.03744C22.1721 9.66876 23.0596 11.1836 24.1824 12.5171C24.1009 12.6485 24.0152 12.7766 23.9337 12.908C22.4456 15.3209 21.1976 17.8738 20.2075 20.5301C20.2079 17.6748 19.5306 14.8603 18.2311 12.3179C16.9375 9.95747 14.7905 8.08454 12.8668 6.13156C10.5561 3.78574 6.51211 5.35906 6.50811 8.65179C6.50807 8.68368 6.50812 8.71554 6.50824 8.74738C6.77487 8.86178 7.03714 8.98546 7.29505 9.11842C7.61928 9.28749 7.88487 9.55056 8.05703 9.87316C8.22919 10.1958 8.29988 10.5628 8.25986 10.9263C8.21983 11.2897 8.07095 11.6326 7.83271 11.91C7.59448 12.1874 7.278 12.3864 6.92476 12.4809L6.88858 12.4906C7.07656 13.3862 7.33234 14.2663 7.65373 15.1232C8.57485 17.5127 9.9797 19.6862 11.7802 21.5074C13.5807 23.3285 15.7379 24.7581 18.1168 25.7064C18.2727 25.7661 18.4248 25.8261 18.5803 25.882C17.7017 29.6193 17.3129 33.4549 17.4235 37.2925C17.496 39.5558 17.7513 41.8095 18.1871 44.0316L18.1671 43.9533C17.4112 41.5119 15.836 39.4061 13.7073 37.9916C10.5496 35.9257 6.3588 35.4943 3.02337 33.9204C2.6678 33.7432 2.26897 33.6713 1.87391 33.7133C1.47886 33.7553 1.10405 33.9094 0.793691 34.1575C0.483337 34.4055 0.250382 34.7371 0.122304 35.1131C-0.00577392 35.4892 -0.0236348 35.8941 0.0708301 36.28C0.0780508 36.3074 0.0853471 36.3348 0.0927135 36.3622C0.579544 36.5013 1.05723 36.6707 1.523 36.8692C1.78963 36.9837 2.0519 37.1073 2.3098 37.2403C2.63403 37.4094 2.89962 37.6724 3.07178 37.995C3.24394 38.3176 3.31464 38.6847 3.27461 39.0482C3.23458 39.4116 3.0857 39.7545 2.84747 40.0319C2.60923 40.3093 2.29276 40.5083 1.93951 40.6028L1.90331 40.6124C1.87723 40.6191 1.85492 40.6254 1.82888 40.632C2.83227 42.4473 4.14064 44.0762 5.69667 45.4476C7.61478 47.1039 9.85097 48.3509 12.2681 49.1122C14.6853 49.8735 17.2325 50.1331 19.7535 49.8751L19.7573 49.8747C20.7645 52.7721 22.07 55.557 23.6528 58.1845L34.2149 57.0357C34.2401 56.9142 34.2609 56.7893 34.2823 56.6683C33.3113 56.8361 32.3234 56.8843 31.3407 56.812C32.0198 55.7652 32.698 54.7108 33.3771 53.664C33.3926 53.6441 33.407 53.6234 33.4201 53.6019C33.7641 53.0665 34.1122 52.5345 34.4562 51.9991L34.4563 51.9985C34.3134 50.4877 33.9766 49.0015 33.4542 47.5766L33.4539 47.5764Z" fill="#F2F2F2"/>
<path d="M179.378 43.6623C179.901 43.8061 180.386 44.0628 180.799 44.4143C181.212 44.7658 181.543 45.2036 181.768 45.6968C181.993 46.1899 182.108 46.7265 182.103 47.2687C182.099 47.8109 181.976 48.3455 181.742 48.8349L187.41 55.1364L184.421 59.5148L176.542 50.5034C175.745 50.0568 175.141 49.3337 174.842 48.471C174.543 47.6083 174.572 46.6661 174.921 45.8228C175.271 44.9796 175.918 44.2939 176.739 43.8957C177.561 43.4975 178.5 43.4144 179.378 43.6623Z" fill="#A0616A"/>
<path d="M232.44 59.1356C231.929 58.304 231.259 57.5814 230.468 57.0093C229.678 56.4371 228.782 56.0268 227.832 55.8017C226.882 55.5766 225.897 55.5413 224.934 55.6977C223.97 55.8541 223.047 56.1991 222.217 56.7131L203.577 68.2579L183.47 51.1659L178.467 55.8237L200.68 84.6437L229.55 69.5932C228.876 69.9445 233.254 60.4608 232.44 59.1356Z" fill="#CCCCCC"/>
<path d="M195.513 97.5228C195.515 106.729 193.703 115.845 190.181 124.351C186.659 132.857 181.495 140.585 174.986 147.095C168.476 153.605 160.747 158.768 152.242 162.29C143.736 165.813 134.619 167.625 125.413 167.623C86.6986 167.623 55.3133 136.237 55.3133 97.5228C55.3066 89.9922 56.5138 82.5098 58.8884 75.3634C63.5505 61.4065 72.482 49.2684 84.42 40.6654C96.358 32.0624 110.698 27.4298 125.413 27.4228C138.104 27.4184 150.558 30.8603 161.445 37.3811C172.332 43.9019 181.244 53.2568 187.23 64.4472C188.714 67.2082 190.008 70.0668 191.105 73.0034C191.257 73.4123 191.405 73.8211 191.549 74.234V74.2379C192.191 76.0527 192.757 77.9012 193.247 79.7836C194.756 85.5756 195.518 91.5372 195.513 97.5228Z" fill="#3F3D56"/>
<path d="M117.744 50.2272C114.593 48.5236 111.096 47.5619 107.517 47.4155C103.939 47.2691 100.374 47.9419 97.0955 49.3824C94.2085 50.6388 91.1686 52.8927 90.2055 56.9628C94.1006 54.664 99.1428 58.2961 100.145 64.1227L99.9112 64.1872C99.3818 68.2229 100.564 72.6167 102.852 75.1191C103.152 72.5198 104.861 70.7508 106.542 69.6457C108.223 68.5406 110.083 67.7378 111.366 65.8383C112.887 63.5864 113.273 60.2953 113.878 57.293C114.482 54.2907 115.628 51.0638 117.744 50.2272Z" fill="white"/>
<path d="M95.9401 84.5698C94.8613 86.1899 93.4204 87.2064 92.1275 88.4721C90.8384 89.7417 89.6116 91.4552 89.3546 93.6555C89.1911 95.0653 89.4442 96.4985 89.4091 97.9239C89.3741 99.3492 88.899 100.954 87.9293 101.308C86.3987 101.861 85.2304 99.0182 83.6571 98.8196C82.4069 98.6638 81.2815 100.631 81.6436 102.336C82.0058 104.042 83.7077 104.798 84.6852 103.684C85.5693 105.168 84.9461 107.859 83.6181 108.314C83.4779 109.249 83.3377 110.18 83.2014 111.114C79.8444 108.766 76.4523 106.379 73.5977 102.94C70.4229 99.1478 68.4537 94.4934 67.943 89.5742C67.573 85.6213 68.1221 81.0999 66.3074 78.0584C64.8547 75.6243 62.3622 75.0869 60.119 75.2388C59.7101 75.266 59.2973 75.3128 58.8884 75.3634C60.2113 71.3901 61.8915 67.5449 63.9083 63.8748C64.3647 63.6789 64.7888 63.4149 65.1662 63.092C67.2537 61.32 68.1806 57.7332 69.8746 55.2525C69.9837 55.0928 70.0966 54.937 70.2134 54.7851C71.9465 52.5225 74.2676 51.358 76.5108 50.2753C81.4762 47.8647 86.5857 45.4229 91.8276 45.7578L90.3361 45.9019C88.5952 50.7778 86.8531 55.6536 85.1097 60.5294C84.8449 61.2771 84.5774 62.0262 84.3075 62.7765C83.3183 65.5493 82.2979 68.5014 82.4498 71.6052C82.5394 73.4434 83.178 75.4062 84.3931 76.0371C85.5264 76.6213 86.7648 75.9047 87.8591 75.1959C88.3226 74.8999 88.7822 74.6039 89.2456 74.304C90.9085 73.2331 92.7506 72.1349 94.507 72.8514C96.1154 73.5057 97.3032 75.6905 97.5291 78.0466C97.7362 80.337 97.1773 82.6313 95.9401 84.5698Z" fill="white"/>
<path d="M105.83 117.858C100.974 114.868 96.1169 111.878 91.2601 108.887L91.3425 108.675C88.3228 109.825 87.0691 115.193 87.5682 119.582C88.0672 123.972 89.7594 127.896 90.6143 132.173C91.7669 138.026 91.3319 144.081 89.3543 149.71C95.7406 142.544 101.392 134.756 106.225 126.462C106.9 125.417 107.415 124.276 107.751 123.078C108.06 121.804 108.012 120.272 107.394 119.25C106.997 118.663 106.459 118.185 105.83 117.858Z" fill="white"/>
<path d="M86.6624 63.4549C86.1467 64.6144 85.9483 66.1606 86.4163 67.3604C86.8943 68.5857 87.9047 69.1394 88.8349 69.6005L91.5185 70.9307C92.4113 71.3732 93.3736 71.8202 94.2837 71.4561C95.3814 71.0169 96.1425 69.296 95.9457 67.6984C95.7361 65.9983 94.6645 64.8288 93.6734 63.833C92.2864 62.4393 90.8994 61.0457 89.5125 59.6521L88.7308 60.6095C87.8854 61.4341 87.186 62.3962 86.6624 63.4549Z" fill="white"/>
<path d="M181.127 81.6295C182.334 81.9138 183.542 82.1981 184.749 82.4824C184.539 86.5599 182.517 90.3336 179.807 91.7005C178.678 92.2691 177.42 92.4794 176.485 93.5426C175.64 94.5084 175.212 96.0116 174.818 97.4487C174.129 99.9567 173.44 102.465 172.75 104.973C172.01 107.676 171.06 110.678 169.136 111.652C167.485 112.489 165.596 111.465 164.327 109.747C163.057 108.03 162.282 105.72 161.53 103.47C161.577 105.923 160.436 108.33 158.82 109.183C157.2 110.036 155.229 109.264 154.146 107.36C153.368 105.993 153.044 104.19 152.281 102.804C151.518 101.417 149.917 100.623 149.084 101.923C148.535 102.788 148.605 104.112 148.332 105.21C147.908 106.916 146.622 107.987 145.349 108.081C144.079 108.174 142.841 107.442 141.778 106.449C139.585 104.392 137.969 101.129 137.342 97.5032C137.065 95.887 136.988 94.1268 137.467 92.6118C137.946 91.0969 139.102 89.9286 140.251 90.2168C141.007 88.62 139.515 86.5014 138.171 86.6884C136.824 86.8753 135.769 88.3201 134.663 89.4301C133.56 90.54 132.018 91.3461 130.908 90.244C130.916 91.2682 130.083 91.9459 129.362 91.8602C128.646 91.7784 128.007 91.202 127.349 90.7931C124.806 89.208 121.577 90.2596 119.77 93.2583C120.9 88.4525 122.555 82.938 126.025 81.8086C127.442 81.3452 128.988 81.7268 130.328 80.9246C132.7 79.5031 133.179 74.1327 131.13 71.9167C131.391 74.0119 131.341 76.4576 130.235 77.8908C129.129 79.324 126.807 78.3892 126.948 76.2707C126.628 77.7311 125.039 77.9531 124.307 76.8315C123.571 75.7099 123.634 73.8757 124.155 72.5359C124.677 71.1962 125.565 70.2343 126.426 69.3113C128.276 67.3291 130.153 65.3234 132.295 64.0772C134.441 62.831 136.917 62.4104 139.067 63.6488C140.201 64.3031 141.197 65.3935 142.354 65.9699C143.511 66.5502 144.979 66.4762 145.746 65.1209C146.607 63.6099 146.202 61.3667 146.521 59.4779C147.094 56.1403 150.431 54.5787 152.281 56.7829C150.899 56.4285 149.469 58.0642 149.298 60.0465C149.123 62.0287 150.124 64.0305 151.463 64.6302C153.714 65.6272 155.918 63.1192 157.62 60.7981C159.396 58.368 161.175 55.9391 162.956 53.5116C163.24 53.0983 163.559 52.71 163.91 52.3511C164.468 51.8073 165.211 51.496 165.99 51.4801C166.769 51.4642 167.525 51.7449 168.104 52.2654C169.903 53.7336 170.749 56.744 172.225 58.8158C174.366 61.8262 177.572 62.5584 180.555 63.1425C182.778 63.5748 185.003 64.0097 187.23 64.4472C188.714 67.2081 190.008 70.0667 191.105 73.0033C187.335 74.6039 183.857 77.5988 181.127 81.6295Z" fill="white"/>
<path d="M188.316 128.487C186.648 131.875 184.707 135.122 182.514 138.196C181.112 137.597 179.604 138.668 178.292 139.672C176.921 140.724 175.274 141.748 173.868 140.79C172.431 139.809 171.967 137.063 172.423 134.886C172.879 132.713 174.016 130.984 175.118 129.34C176.286 127.596 177.536 125.785 179.16 125.107C180.788 124.429 182.88 125.387 183.355 127.701L184.508 127.662C183.861 126.774 184.2 124.936 185.068 124.612C186.069 124.235 186.938 125.609 187.53 126.825C187.794 127.374 188.063 127.927 188.316 128.487Z" fill="white"/>
<path d="M144.167 112.038C141.689 112.193 139.726 109.143 138.422 106.142C137.118 103.142 135.928 99.71 133.692 98.1826C132.415 97.3099 130.958 97.1901 129.573 96.7672C128.187 96.3443 126.737 95.4692 126.074 93.6871L124.503 93.0522C122.427 94.2193 120.324 95.4078 118.535 97.3072C116.529 99.4381 115.279 102.17 114.979 105.081C114.679 108.227 115.788 111.735 117.859 112.917C119.496 113.851 121.402 113.262 123.06 114.117C125.132 115.185 126.362 118.288 126.827 121.351C127.293 124.415 127.175 127.599 127.508 130.697C127.841 133.795 128.759 137.019 130.659 138.607C133.036 140.594 136.525 138.943 137.592 135.326C138.115 133.552 138.097 131.55 138.488 129.708C139.177 126.465 141.037 124.059 142.512 121.399C143.987 118.738 145.148 115.125 144.167 112.038Z" fill="white"/>
<path d="M119.683 80.1689C119.914 80.3816 120.129 80.6105 120.328 80.8538C120.533 81.2081 120.638 81.6118 120.631 82.0213C120.624 82.4308 120.506 82.8306 120.288 83.1777C120.587 83.1607 120.878 83.082 121.145 82.9466C121.411 82.8111 121.647 82.6219 121.837 82.3908C122.289 81.8758 122.687 81.3154 123.024 80.7186C123.276 80.3065 123.545 79.7493 123.374 79.2599C123.257 78.9258 122.98 78.7833 122.786 78.5321C122.478 78.1339 122.402 77.5014 122.243 76.9549C121.899 75.7745 121.075 74.9065 120.181 74.7824L120.305 74.8061C119.932 74.9341 119.671 75.5271 119.754 76.0608C119.829 76.5468 120.141 76.9502 120.11 77.4459C120.065 78.1586 119.353 78.4931 119.309 79.2059C119.302 79.5635 119.436 79.9094 119.683 80.1689Z" fill="white"/>
<path d="M115.437 68.057C115.441 68.056 115.445 68.0558 115.448 68.0549C115.525 67.9854 115.595 67.9102 115.66 67.8297L115.437 68.057Z" fill="#E6E6E6"/>
<path d="M116.18 71.4025C116.728 71.0502 117.034 70.076 116.853 69.2605C116.673 68.4501 116.036 67.9052 115.448 68.0549C115.278 68.2277 115.066 68.3544 114.833 68.4229C114.601 68.4915 114.354 68.4997 114.117 68.4468C113.754 68.3533 113.355 68.1124 113.04 68.3861C112.86 68.5905 112.734 68.8369 112.673 69.1026C112.556 69.4606 112.44 69.8186 112.323 70.1765C112.268 70.3047 112.253 70.4468 112.282 70.5835C112.304 70.6383 112.34 70.6864 112.387 70.7232C112.433 70.76 112.488 70.7843 112.546 70.7937C113.246 71 113.946 71.2063 114.645 71.4126C115.155 71.5629 115.706 71.7077 116.18 71.4025Z" fill="white"/>
<path d="M169.005 117.59C168.682 117.061 168.358 116.531 168.035 116.002C167.717 115.388 167.283 114.843 166.756 114.396C166.64 114.299 166.506 114.226 166.362 114.182C166.218 114.137 166.066 114.122 165.916 114.137C165.765 114.152 165.62 114.197 165.487 114.269C165.354 114.342 165.237 114.44 165.143 114.558L165.183 114.86C165.92 115.785 166.7 116.813 166.887 118.185C166.961 118.727 166.935 119.287 167 119.83C167.064 120.374 167.248 120.938 167.599 121.172C168.108 121.512 168.706 121.01 169.069 120.398C169.393 119.895 169.538 119.298 169.482 118.703C169.401 118.303 169.239 117.925 169.005 117.59Z" fill="white"/>
<path d="M183.401 97.3656C183.494 96.7521 183.588 96.1387 183.681 95.5253C183.833 94.8515 183.852 94.1545 183.737 93.4735C183.711 93.3247 183.655 93.1827 183.573 93.0557C183.492 92.9288 183.385 92.8195 183.261 92.7342C183.136 92.6489 182.996 92.5895 182.848 92.5593C182.7 92.5291 182.547 92.5288 182.399 92.5584L182.234 92.8152C182.203 93.9976 182.138 95.2861 181.397 96.4568C181.105 96.9183 180.724 97.3303 180.424 97.7878C180.123 98.2453 179.901 98.7949 180.018 99.2001C180.189 99.7884 180.969 99.7897 181.641 99.5548C182.213 99.3788 182.709 99.0155 183.049 98.5234C183.244 98.1657 183.364 97.7716 183.401 97.3656Z" fill="#E6E6E6"/>
<path d="M174.079 118.279C174.238 117.825 174.009 117.303 173.961 116.801C173.938 116.152 174.11 115.511 174.455 114.961C174.798 114.442 175.057 113.873 175.224 113.274C175.295 113.001 175.282 112.713 175.188 112.447C175.081 112.207 174.821 112.097 174.672 112.288L174.991 112.493C174.561 112.416 174.119 112.437 173.699 112.555C173.459 112.647 173.245 112.795 173.074 112.987C172.904 113.179 172.782 113.41 172.72 113.659C172.667 114.047 172.581 114.43 172.463 114.804C172.273 115.194 171.906 115.324 171.675 115.667C171.517 115.97 171.438 116.308 171.443 116.651C171.449 116.993 171.54 117.328 171.707 117.626C171.997 118.114 172.458 118.477 173.001 118.644C173.39 118.783 173.902 118.79 174.079 118.279Z" fill="white"/>
<path d="M183.115 121.006C183.256 121.371 183.444 121.717 183.675 122.033C184.108 122.469 184.696 122.201 185.221 122.095C185.697 122.02 186.185 122.075 186.632 122.255C187.08 122.434 187.47 122.731 187.762 123.115C187.559 122.1 187.115 121.148 186.467 120.341C185.82 119.533 184.988 118.892 184.041 118.473C182.804 117.968 181.501 117.92 180.215 117.874L179.993 117.931C180.559 119.58 182.337 119.543 183.115 121.006Z" fill="white"/>
<path d="M144.845 124.377L144.848 124.384C144.869 124.343 144.891 124.301 144.912 124.26L144.845 124.377Z" fill="#E6E6E6"/>
<path d="M143.474 127.031C143.175 127.573 142.918 128.138 142.705 128.72C142.423 129.662 142.236 130.631 142.147 131.611C142.078 132.168 142.056 132.879 142.405 133.151C142.505 133.217 142.626 133.245 142.746 133.229C142.865 133.213 142.974 133.154 143.053 133.063C143.247 132.858 143.405 132.622 143.522 132.365C144.208 131.183 144.741 129.919 145.107 128.603C145.441 127.217 145.438 125.585 144.848 124.384C144.39 125.266 143.932 126.149 143.474 127.031Z" fill="white"/>
<path d="M130.249 56.3403C130.467 56.5531 130.743 56.6976 131.041 56.7559C131.34 56.8142 131.65 56.7839 131.931 56.6685C132.515 56.4134 133.05 56.0598 133.514 55.6232C133.898 55.3391 134.224 54.9838 134.473 54.5766C134.611 54.3333 134.699 54.0652 134.733 53.7878C134.766 53.5103 134.745 53.2289 134.67 52.9598C134.453 52.3259 133.903 52.1134 133.418 51.9696C132.641 51.7393 131.864 51.5089 131.088 51.2786L131.65 50.7722C131.072 50.462 130.432 51.0378 130.071 51.7506C129.839 52.216 129.677 52.7132 129.591 53.226C129.398 54.3448 129.587 55.6771 130.249 56.3403Z" fill="#E6E6E6"/>
<path d="M143.962 51.7369C144.181 51.9783 144.483 52.1273 144.808 52.1537C145.133 52.1801 145.455 52.082 145.71 51.8792C145.93 51.7143 146.112 51.5051 146.245 51.265C146.379 51.025 146.46 50.7596 146.484 50.4861C146.539 49.8752 146.237 49.1962 145.805 49.1434L145.904 48.5714C145.073 48.4214 144.05 48.3913 143.605 49.4005C143.455 49.7871 143.409 50.2064 143.471 50.6164C143.534 51.0264 143.703 51.4128 143.962 51.7369Z" fill="#E6E6E6"/>
<path d="M142.13 21.3194C137.258 20.7698 132.367 22.1782 128.533 25.2348C124.699 28.2914 122.237 32.7457 121.687 37.618C120.542 47.7639 125.888 69.796 135.633 78.9163C140.222 61.4425 156.301 51.0779 158.429 41.7624C160.702 31.8085 152.276 22.4639 142.13 21.3194Z" fill="#337061"/>
<path d="M138.76 43.8748C142.09 43.8748 144.79 41.1754 144.79 37.8455C144.79 34.5156 142.09 31.8162 138.76 31.8162C135.43 31.8162 132.731 34.5156 132.731 37.8455C132.731 41.1754 135.43 43.8748 138.76 43.8748Z" fill="white"/>
<path d="M132.421 87.6098C134.602 87.6098 136.37 85.8417 136.37 83.6607C136.37 81.4797 134.602 79.7116 132.421 79.7116C130.24 79.7116 128.472 81.4797 128.472 83.6607C128.472 85.8417 130.24 87.6098 132.421 87.6098Z" fill="#337061"/>
<path opacity="0.2" d="M143.749 33.5258C144.428 33.9336 145.019 34.4711 145.49 35.1076C145.961 35.7441 146.302 36.4671 146.494 37.2353C146.685 38.0036 146.724 38.802 146.606 39.5851C146.489 40.3682 146.219 41.1205 145.811 41.7992C145.404 42.4778 144.866 43.0695 144.23 43.5405C143.593 44.0114 142.87 44.3524 142.102 44.5439C140.55 44.9307 138.909 44.6853 137.538 43.8617C138.936 44.1726 140.398 43.976 141.664 43.3071C142.93 42.6382 143.916 41.5406 144.447 40.2109C144.977 38.8812 145.017 37.4061 144.559 36.0496C144.101 34.6931 143.176 33.5438 141.948 32.8074C142.583 32.9482 143.191 33.1908 143.749 33.5258Z" fill="#231F20"/>
<path opacity="0.2" d="M158.452 41.7819C156.325 51.0974 140.245 61.4619 135.657 78.9358C134.74 78.0698 133.889 77.1373 133.11 76.1457C138.266 59.7208 153.345 49.7404 155.4 40.74C157.24 32.6844 152.072 25.0287 144.656 21.7947C153.633 24.0512 160.535 32.6601 158.452 41.7819Z" fill="#231F20"/>
<path d="M85.6292 44.8449C81.9703 44.4322 78.2974 45.4898 75.4183 47.7852C72.5392 50.0806 70.6899 53.4257 70.2772 57.0845C69.4177 64.7037 73.4318 81.2491 80.7502 88.0982C84.1961 74.9759 96.2711 67.1925 97.8689 60.1969C99.5761 52.7218 93.2484 45.7044 85.6292 44.8449Z" fill="#337061"/>
<path d="M83.0987 61.7832C85.5993 61.7832 87.6265 59.7561 87.6265 57.2554C87.6265 54.7548 85.5993 52.7276 83.0987 52.7276C80.598 52.7276 78.5709 54.7548 78.5709 57.2554C78.5709 59.7561 80.598 61.7832 83.0987 61.7832Z" fill="white"/>
<path d="M78.3379 94.6267C79.9757 94.6267 81.3035 93.2989 81.3035 91.661C81.3035 90.0232 79.9757 88.6954 78.3379 88.6954C76.7 88.6954 75.3723 90.0232 75.3723 91.661C75.3723 93.2989 76.7 94.6267 78.3379 94.6267Z" fill="#337061"/>
<path opacity="0.2" d="M86.845 54.0115C87.3546 54.3177 87.799 54.7213 88.1526 55.1993C88.5063 55.6773 88.7624 56.2203 88.9062 56.7972C89.05 57.3741 89.0788 57.9737 88.9909 58.5618C88.903 59.1498 88.7001 59.7148 88.3939 60.2245C88.0876 60.7341 87.684 61.1785 87.206 61.5321C86.7281 61.8858 86.1851 62.1419 85.6082 62.2857C85.0313 62.4295 84.4316 62.4583 83.8436 62.3704C83.2555 62.2825 82.6906 62.0796 82.1809 61.7734C83.2304 62.0068 84.3286 61.8592 85.2792 61.3568C86.2297 60.8545 86.9704 60.0303 87.3688 59.0317C87.7672 58.0331 87.7972 56.9254 87.4534 55.9067C87.1096 54.8881 86.4146 54.025 85.4926 53.472C85.9695 53.5777 86.4263 53.7598 86.845 54.0115Z" fill="#231F20"/>
<path opacity="0.2" d="M97.8866 60.2115C96.2889 67.2071 84.2138 74.9905 80.7679 88.1128C80.0797 87.4625 79.4404 86.7622 78.8555 86.0176C82.7277 73.683 94.0511 66.1881 95.5948 59.429C96.9764 53.3796 93.0954 47.6304 87.5264 45.2018C94.2677 46.8964 99.4511 53.3613 97.8866 60.2115Z" fill="#231F20"/>
<path d="M227.385 208.867H222.414L220.049 189.691L227.386 189.692L227.385 208.867Z" fill="#A0616A"/>
<path d="M230.059 218.306H226.532L225.902 214.976L224.29 218.306H214.934C214.485 218.306 214.048 218.163 213.687 217.897C213.326 217.631 213.059 217.257 212.926 216.829C212.792 216.401 212.799 215.941 212.945 215.517C213.091 215.093 213.369 214.727 213.738 214.472L221.21 209.312V205.945L229.069 206.414L230.059 218.306Z" fill="#2F2E41"/>
<path d="M208.13 208.867H203.158L200.793 189.691L208.131 189.692L208.13 208.867Z" fill="#A0616A"/>
<path d="M210.804 218.306H207.276L206.647 214.976L205.034 218.306H195.678C195.23 218.306 194.793 218.163 194.432 217.897C194.07 217.631 193.804 217.257 193.67 216.829C193.537 216.401 193.544 215.941 193.69 215.517C193.836 215.093 194.114 214.727 194.483 214.472L201.954 209.312V205.945L209.813 206.414L210.804 218.306Z" fill="#2F2E41"/>
<path d="M189.243 158.24C190.194 159.667 200.544 198.896 200.544 198.896L209.721 199.942L208.632 190.072L206.967 172.605L204.389 160.946C204.389 160.946 213.493 140.226 214.069 138.575L214.478 137.391L217.322 163.206C217.66 164.127 217.807 165.108 217.755 166.088C217.669 167.701 219.287 191.96 219.287 191.96L220.064 200.661L227.927 201.753L231.117 186.699C233.781 181.809 232.254 164.433 231.164 162.816C230.075 161.198 230.508 149.934 230.508 149.934C231.899 149.445 240.194 121.16 236.045 121.327C236.311 119.819 236.52 118.473 236.52 118.473L229.319 112.665L211.295 107.98L206.748 105.796C206.748 105.796 198.627 120.813 198.708 121.56C198.82 122.506 198.603 123.462 198.094 124.267L189.895 151.709C189.895 151.709 188.282 156.798 189.243 158.24Z" fill="#2F2E41"/>
<path d="M234.524 60.0425L231.656 53.9548L221.897 54.3299L218.714 60.6632C218.714 60.6632 209.617 71.5287 209.323 75.0617C208.953 79.5052 212.03 101.283 208.953 99.8715C208.953 99.8715 201.697 108.388 205.99 108.388C210.284 108.388 229.705 120.58 230.979 121.951C232.254 123.322 237.942 124.211 237.465 121.349C236.988 118.486 234.524 103.007 234.524 103.007L241.196 78.6658C243.116 73.4107 243.714 67.5161 239.373 63.986L234.524 60.0425Z" fill="#CCCCCC"/>
<path d="M198.376 42.1248C197.07 41.6066 195.676 41.3507 194.272 41.3715C192.867 41.3923 191.481 41.6895 190.191 42.2461C188.902 42.8027 187.735 43.6079 186.757 44.6155C185.779 45.6232 185.008 46.8137 184.49 48.119C182.311 53.6086 181.95 66.7183 186.005 73.2887C191.219 64.2315 201.768 60.8871 204.37 56.0103C207.15 50.7992 203.865 44.3039 198.376 42.1248Z" fill="#337061"/>
<path d="M193.986 54.3257C195.912 54.3257 197.474 52.7642 197.474 50.838C197.474 48.9117 195.912 47.3502 193.986 47.3502C192.06 47.3502 190.498 48.9117 190.498 50.838C190.498 52.7642 192.06 54.3257 193.986 54.3257Z" fill="white"/>
<path d="M183.492 77.7337C184.753 77.7337 185.776 76.7109 185.776 75.4493C185.776 74.1876 184.753 73.1648 183.492 73.1648C182.23 73.1648 181.207 74.1876 181.207 75.4493C181.207 76.7109 182.23 77.7337 183.492 77.7337Z" fill="#337061"/>
<path opacity="0.2" d="M197.426 49.1841C198.065 49.8521 198.413 50.7464 198.393 51.6706C198.373 52.5948 197.987 53.4732 197.319 54.1128C196.652 54.7524 195.758 55.1009 194.834 55.0818C193.909 55.0626 193.031 54.6774 192.39 54.0106C193.123 54.3963 193.969 54.5086 194.777 54.3274C195.586 54.1461 196.303 53.6832 196.801 53.0215C197.299 52.3598 197.545 51.5425 197.495 50.7158C197.446 49.8892 197.104 49.1071 196.53 48.5097C196.863 48.6847 197.166 48.9124 197.426 49.1841Z" fill="#231F20"/>
<path opacity="0.2" d="M204.38 56.0247C201.778 60.9016 191.229 64.2459 186.015 73.3031C185.635 72.6806 185.302 72.0308 185.017 71.3591C190.389 62.9736 200.321 59.6917 202.835 54.9798C205.085 50.7625 203.362 45.7046 199.714 42.7736C204.382 45.396 206.928 51.2493 204.38 56.0247Z" fill="#231F20"/>
<path d="M182.462 74.6627C182.993 74.5532 183.542 74.5615 184.069 74.687C184.597 74.8125 185.09 75.0521 185.515 75.389C185.94 75.7259 186.286 76.1518 186.529 76.6368C186.771 77.1218 186.904 77.654 186.919 78.196L194.831 81.2333L194.158 86.4919L183.044 82.0458C182.132 82.0098 181.265 81.6404 180.607 81.0077C179.949 80.375 179.546 79.5228 179.474 78.6128C179.402 77.7027 179.667 76.7979 180.218 76.0699C180.768 75.3419 181.567 74.8412 182.462 74.6626L182.462 74.6627Z" fill="#A0616A"/>
<path d="M237.75 63.826C236.917 63.3174 235.991 62.9783 235.027 62.8281C234.062 62.6779 233.078 62.7196 232.129 62.9507C231.181 63.1819 230.288 63.598 229.501 64.1752C228.713 64.7523 228.048 65.4792 227.542 66.3142L216.185 85.0693L190.506 78.9825L188.167 85.4051L221.051 100.982L237.706 74.4549C240.199 70.9507 241.42 66.0671 237.75 63.826Z" fill="#CCCCCC"/>
<path d="M238.174 40.841C238.174 42.6487 237.731 44.4289 236.883 46.0253C236.035 47.6217 234.809 48.9856 233.311 49.9972C231.812 51.0088 230.089 51.6372 228.291 51.8272C226.494 52.0172 224.677 51.7631 223 51.087C221.324 50.4109 219.839 49.3337 218.676 47.9498C217.513 46.5659 216.708 44.9177 216.33 43.1498C215.953 41.382 216.016 39.5486 216.512 37.8105C217.009 36.0724 217.925 34.4829 219.179 33.1814L219.232 33.1284C219.321 33.0356 219.409 32.9429 219.502 32.8545C219.502 32.8545 219.503 32.8544 219.503 32.8542C219.504 32.8539 219.505 32.8536 219.505 32.8532C219.505 32.8528 219.506 32.8523 219.506 32.8518C219.506 32.8512 219.506 32.8506 219.506 32.8501C219.621 32.744 219.736 32.638 219.855 32.5364C221.451 31.1374 223.416 30.228 225.515 29.9169C227.615 29.6059 229.759 29.9065 231.692 30.7828C233.625 31.659 235.264 33.0737 236.414 34.8576C237.563 36.6414 238.174 38.7188 238.174 40.841V40.841Z" fill="#2F2E41"/>
<path d="M224.41 52.6564C229.524 52.6564 233.67 48.5104 233.67 43.3961C233.67 38.2818 229.524 34.1359 224.41 34.1359C219.295 34.1359 215.149 38.2818 215.149 43.3961C215.149 48.5104 219.295 52.6564 224.41 52.6564Z" fill="#9E616A"/>
<path d="M234.243 46.037L232.709 45.766C231.852 45.6101 231.062 45.1963 230.447 44.5797C229.831 43.9631 229.418 43.1733 229.264 42.3158L227.766 44.8248L227.701 44.8465C224.134 46.0308 220.423 45.6766 216.357 43.7651C215.195 43.2138 214.068 42.5921 212.981 41.9035L212.901 41.8534L212.894 41.7592C212.687 38.7468 213.363 36.2301 214.798 34.6728C215.349 34.0869 216.018 33.624 216.76 33.3146C217.503 33.0051 218.302 32.856 219.106 32.877C219.163 32.8621 219.216 32.8331 219.259 32.7926C219.28 32.7774 219.3 32.7624 219.321 32.7481V32.7326L219.427 32.6825C219.656 32.5751 219.889 32.4722 220.121 32.3782C221.954 31.6688 223.949 31.4909 225.878 31.8648C227.807 32.2387 229.591 33.1492 231.026 34.4918C233.878 37.215 235.187 41.7849 234.282 45.8639L234.243 46.037Z" fill="#2F2E41"/>
<path d="M253.775 53.9268C250.624 52.3002 254.677 46.397 253.862 42.9456C253.048 39.4941 247.183 38.384 246.81 34.8575C246.436 31.331 245.557 27.6937 243.23 25.0178C241.743 23.3079 239.552 22.0455 237.296 22.2597C236.533 22.3322 235.794 22.5683 235.13 22.952C234.467 23.3357 233.893 23.8579 233.45 24.4832C233.006 25.1084 232.702 25.8219 232.559 26.5751C232.416 27.3284 232.437 28.1036 232.62 28.848C231.978 27.9379 230.316 28.1352 229.904 29.1704C229.538 30.0907 230.346 31.2054 231.297 31.2868C232.542 32.8236 233.967 34.4545 235.916 34.7645C236.227 34.8358 236.549 34.8356 236.86 34.7639C237.171 34.6923 237.461 34.551 237.709 34.3507C238.167 33.9103 238.203 33.0297 237.659 32.7006C240.109 33.6738 241.545 36.3226 241.909 38.9336C242.272 41.5446 241.769 44.1863 241.438 46.8016C241.106 49.4168 240.964 52.1679 241.989 54.5965C243.201 57.4658 245.99 59.5224 249.034 60.1819C252.078 60.8414 255.32 60.1968 258.075 58.7446C260.831 57.2923 263.129 55.0752 265.006 52.5896C261.772 54.8855 257.299 55.7456 253.775 53.9268Z" fill="#2F2E41"/>
<path d="M233.849 45.7795C233.849 45.7795 231.106 35.5402 219.347 33.1769C219.334 33.1726 219.29 33.1549 219.232 33.1284C219.197 33.1063 219.153 33.0842 219.109 33.0621C219.241 32.987 219.369 32.9208 219.502 32.8545C219.502 32.8545 219.503 32.8544 219.503 32.8542C219.504 32.854 219.505 32.8536 219.505 32.8532C219.505 32.8528 219.506 32.8523 219.506 32.8518C219.506 32.8512 219.506 32.8507 219.506 32.8501C219.621 32.7441 219.736 32.638 219.855 32.5365L220.191 32.5497C220.191 32.5497 231.99 30.6812 233.849 45.7795Z" fill="#FD6584"/>
<path opacity="0.2" d="M227.708 78.6349L221.066 86.3293L210.093 83.0888L222.056 88.6018L227.708 78.6349Z" fill="black"/>
<path d="M267.57 218.886L165.461 219C165.345 219 165.233 218.953 165.15 218.87C165.068 218.788 165.022 218.676 165.022 218.559C165.022 218.442 165.068 218.33 165.15 218.248C165.233 218.165 165.345 218.119 165.461 218.118L267.57 218.004C267.687 218.004 267.8 218.051 267.882 218.133C267.965 218.216 268.011 218.328 268.011 218.445C268.011 218.562 267.965 218.674 267.882 218.757C267.8 218.84 267.687 218.886 267.57 218.886Z" fill="#CACACA"/>
<path d="M272.052 150.367C267.271 150.367 262.031 150.186 256.331 149.825C226.85 147.953 188.664 141.444 148.806 131.498C108.948 121.552 72.1806 109.356 45.2766 97.1588C32.1709 91.2167 22.1123 85.5921 15.3806 80.4409C8.25354 74.9875 5.13604 70.234 6.1144 66.313C8.02068 58.6742 24.8999 57.003 38.7241 56.9462L38.7288 58.0571C19.7445 58.1351 8.54466 61.1627 7.19239 66.5821C5.46983 73.4844 19.5183 84.2603 45.7353 96.147C72.5802 108.318 109.28 120.49 149.075 130.42C188.87 140.35 226.986 146.848 256.402 148.716C285.129 150.541 302.593 147.628 304.316 140.726C305.746 134.995 296.318 126.552 277.769 116.953L278.28 115.967C291.758 122.942 307.402 132.945 305.394 140.995C304.415 144.916 299.43 147.647 290.576 149.113C285.529 149.948 279.33 150.367 272.052 150.367Z" fill="#337061"/>
</g>
<defs>
<clipPath id="clip0_8_6">
<rect width="305.569" height="219" fill="white"/>
</clipPath>
</defs>
</svg>
